<svg xmlns="http://www.w3.org/2000/svg" version="1.1" xmlns:xlink="http://www.w3.org/1999/xlink" xmlns:svgjs="http://svgjs.dev/svgjs" width="1500" height="1500" viewBox="0 0 1500 1500"><rect width="1500" height="1500" fill="#000000"></rect><g transform="matrix(0.6666666666666666,0,0,0.6666666666666666,249.39393939393938,435.9903225806451)"><svg viewBox="0 0 396 248" data-background-color="#ffffff" preserveAspectRatio="xMidYMid meet" height="939" width="1500" xmlns="http://www.w3.org/2000/svg" xmlns:xlink="http://www.w3.org/1999/xlink"><g id="tight-bounds" transform="matrix(1,0,0,1,0.2400000000000091,0.4000000000000057)"><svg viewBox="0 0 395.52 247.2" height="247.2" width="395.52"><g><svg></svg></g><g><svg viewBox="0 0 395.52 247.2" height="247.2" width="395.52"><g transform="matrix(1,0,0,1,75.54432,73.17361170731706)"><svg viewBox="0 0 244.43135999999998 100.85277658536585" height="100.85277658536585" width="244.43135999999998"><g><svg viewBox="0 0 244.43135999999998 100.85277658536585" height="100.85277658536585" width="244.43135999999998"><g><svg viewBox="0 0 244.43135999999998 100.85277658536585" height="100.85277658536585" width="244.43135999999998"><g><svg viewBox="0 0 244.43135999999998 100.85277658536585" height="100.85277658536585" width="244.43135999999998"><g id="textblocktransform"><svg viewBox="0 0 244.43135999999998 100.85277658536585" height="100.85277658536585" width="244.43135999999998" id="textblock"><g><svg viewBox="0 0 244.43135999999998 100.85277658536585" height="100.85277658536585" width="244.43135999999998"><g transform="matrix(1,0,0,1,0,0)"><svg width="244.43135999999998" viewBox="-1.85 -37.7 98.39 40.6" height="100.85277658536585" data-palette-color="#6d285f"><path d="M2.35 2.9L2.35 2.9Q-1.85 2.9-1.85-0.4L-1.85-0.4Q-1.85-1.95-0.8-3.05L-0.8-3.05Q0.25-4.2 1.7-4.2L1.7-4.2Q2.75-4.2 3.35-3.5L3.35-3.5Q3.8-2.9 3.8-2.2L3.8-2.2Q3.8-1.6 3.58-1.03 3.35-0.45 2.8-0.05L2.8-0.05Q2 0.7 0.95 0.7L0.95 0.7Q0.05 0.7-0.55 0.1L-0.55 0.1Q0 1.55 2.3 1.55L2.3 1.55Q2.9 1.55 3.4 1.4L3.4 1.4Q7.7 0.25 10.9-3.55L10.9-3.55Q13.65-6.9 18.1-15.65L18.1-15.65 25.55-30.3Q26.15-31.45 26.93-32.43 27.7-33.4 28.55-34.2L28.55-34.2Q26.65-34.15 24.58-33.7 22.5-33.25 20.25-32.5L20.25-32.5Q15.7-30.95 13.15-28.9L13.15-28.9Q8.25-25.05 8.25-21.75L8.25-21.75Q8.25-19.8 10.5-19.8L10.5-19.8Q13.15-19.8 16.05-21.5L16.05-21.5Q18.7-23.05 20.65-25.45L20.65-25.45Q20.8-25.6 20.95-25.6L20.95-25.6Q21.3-25.6 21.3-25.35L21.3-25.35Q21.3-23.4 16.5-20.85L16.5-20.85Q12.1-18.45 9.8-18.45L9.8-18.45Q5.15-18.45 5.15-22L5.15-22Q5.15-23.65 6.45-25.5L6.45-25.5Q8-27.7 10.6-29.48 13.2-31.25 16.9-32.6L16.9-32.6Q23.3-34.95 29.4-35L29.4-35Q32.55-37.7 35.9-37.7L35.9-37.7Q37.3-37.7 38.55-37.15L38.55-37.15Q38.8-37.05 38.8-36.8L38.8-36.8Q38.8-36.05 38.4-36.3L38.4-36.3Q37.6-36.75 36.4-36.75L36.4-36.75Q34-36.75 31.8-34.95L31.8-34.95Q35.95-34.55 38-32.65L38-32.65Q39.7-30.95 39.7-28.75L39.7-28.75Q39.7-25.45 36.85-22.15L36.85-22.15Q34.1-18.95 30.05-17.55L30.05-17.55Q36.85-16.35 36.85-10.95L36.85-10.95Q36.85-6.45 32.2-2.3L32.2-2.3Q27.15 2.15 20 2.65L20 2.65Q19.65 2.7 19.28 2.7 18.9 2.7 18.5 2.7L18.5 2.7Q11.95 2.7 12-1.25L12-1.25Q6.95 2.9 2.35 2.9ZM27.9-29.3L23.15-17.6Q24.15-17.7 25.13-17.78 26.1-17.85 27-17.85L27-17.85Q30.75-18.5 33.55-21.7L33.55-21.7Q36.45-25 36.45-28.6L36.45-28.6Q36.45-30.55 35.3-31.95L35.3-31.95Q33.85-33.75 30.9-34.15L30.9-34.15Q29.95-33.2 29.23-31.98 28.5-30.75 27.9-29.3L27.9-29.3ZM18.2 1.85L18.2 1.85Q19.2 1.85 20.4 1.6 21.6 1.35 23.1 0.9L23.1 0.9Q27.45-0.5 30.35-3.95L30.35-3.95Q33.35-7.5 33.35-10.75L33.35-10.75Q33.35-13.3 31.45-14.8L31.45-14.8Q29.35-16.45 25.3-16.45L25.3-16.45Q24.05-16.45 22.6-16.3L22.6-16.3Q22.2-15.3 21.53-13.85 20.85-12.4 19.85-10.6L19.85-10.6Q19.5-10 19.1-9.35 18.7-8.7 18.2-8L18.2-8Q20.2-9 22.33-9.73 24.45-10.45 26.75-10.95L26.75-10.95Q27.45-11.1 27.8-11.1L27.8-11.1Q28.35-11.1 28.35-10.9L28.35-10.9Q28.35-10.4 26.8-10.05L26.8-10.05Q20.15-8.3 16.7-4.7L16.7-4.7Q14.55-2.5 14.55-0.85L14.55-0.85Q14.55 0 15.1 0.7L15.1 0.7Q16.1 1.85 18.2 1.85ZM51.65 0.1L51.65 0.1Q50.55 0.1 49.85-0.55L49.85-0.55Q48.85-1.4 48.85-3.4L48.85-3.4Q48.85-4.7 49.3-6.35L49.3-6.35Q47.6-3.5 45.75-1.7L45.75-1.7Q43.85 0.05 42.35 0.05L42.35 0.05Q41.05 0.05 40.3-1.1L40.3-1.1Q39.5-2.2 39.5-4.15L39.5-4.15Q39.5-8.9 43.75-13.95L43.75-13.95Q44.45-14.8 45.35-15.5 46.25-16.2 47.3-16.75L47.3-16.75Q49.45-17.85 51.45-17.85L51.45-17.85Q53.9-17.85 55.35-16.25L55.35-16.25Q55.7-15.9 55.7-15.45L55.7-15.45Q55.7-14.6 54.8-14.8L54.8-14.8Q54.3-16.6 52.45-16.6L52.45-16.6Q50.35-16.6 47.5-13.65L47.5-13.65Q46.5-12.55 45.6-11.38 44.7-10.2 43.9-8.9L43.9-8.9Q41.75-5.3 41.75-3.05L41.75-3.05Q41.75-1.35 43.05-1.35L43.05-1.35Q44.5-1.35 46.4-3.55L46.4-3.55Q47.45-4.75 48.55-6.5 49.65-8.25 50.85-10.55L50.85-10.55Q51.35-11.5 51.75-12.1 52.15-12.7 52.4-13L52.4-13Q53.2-13.8 54.3-13.75L54.3-13.75 55.3-13.6Q55.95-13.45 56.4-13.55L56.4-13.55Q55.95-13.1 55.32-12.13 54.7-11.15 53.9-9.6L53.9-9.6Q53.05-7.95 52.5-6.6 51.95-5.25 51.75-4.2L51.75-4.2Q51.65-3.7 51.6-3.28 51.55-2.85 51.55-2.5L51.55-2.5Q51.55-1.2 52.25-1.2L52.25-1.2Q53.25-1.2 55-3.4L55-3.4 55.2-3.65 55.9-3.2 55.7-2.9Q53.65 0.1 51.65 0.1ZM56.4 0.35L56.4 0.35Q57.35-2.05 58.92-5.65 60.5-9.25 62.5-13.85L62.5-13.85Q62.9-14.85 63.27-15.45 63.65-16.05 63.95-16.4L63.95-16.4Q64.6-17.15 65.7-17L65.7-17 66.75-16.85Q67.1-16.8 67.37-16.78 67.65-16.75 67.85-16.8L67.85-16.8Q66.85-16.3 65.52-13.98 64.2-11.65 62.6-7.65L62.6-7.65Q63.15-8.35 64-9.53 64.85-10.7 66.15-12.25L66.15-12.25Q67.6-13.95 69.15-15.4 70.7-16.85 72.15-16.85L72.15-16.85Q73.3-16.85 73.8-16.1 74.3-15.35 74.3-14.4L74.3-14.4Q74.3-13.25 73.4-12.35 72.5-11.45 71.65-11.45L71.65-11.45Q71.3-11.45 70.92-11.6 70.55-11.75 70.55-12.05L70.55-12.05Q70.55-12.3 70.65-12.53 70.75-12.75 70.75-13.05L70.75-13.05Q70.75-13.8 70.05-13.8L70.05-13.8Q69.8-13.8 69.37-13.68 68.95-13.55 68.25-12.85L68.25-12.85Q66.85-11.55 65.22-9.73 63.6-7.9 62.17-5.65 60.75-3.4 59.85-0.7L59.85-0.7Q59.6 0.05 58.35 0.1L58.35 0.1Q56.65 0.2 56.4 0.35ZM71.14 0.35L71.14 0.35Q72.09-2.05 73.67-5.65 75.24-9.25 77.24-13.85L77.24-13.85Q77.64-14.85 78.02-15.45 78.39-16.05 78.69-16.4L78.69-16.4Q79.34-17.15 80.44-17L80.44-17 81.49-16.85Q81.84-16.8 82.12-16.78 82.39-16.75 82.59-16.8L82.59-16.8Q81.59-16.3 80.27-13.98 78.94-11.65 77.34-7.65L77.34-7.65Q77.89-8.35 78.74-9.53 79.59-10.7 80.89-12.25L80.89-12.25Q82.34-13.95 83.89-15.4 85.44-16.85 86.89-16.85L86.89-16.85Q88.04-16.85 88.54-16.1 89.04-15.35 89.04-14.4L89.04-14.4Q89.04-13.25 88.14-12.35 87.24-11.45 86.39-11.45L86.39-11.45Q86.04-11.45 85.67-11.6 85.29-11.75 85.29-12.05L85.29-12.05Q85.29-12.3 85.39-12.53 85.49-12.75 85.49-13.05L85.49-13.05Q85.49-13.8 84.79-13.8L84.79-13.8Q84.54-13.8 84.12-13.68 83.69-13.55 82.99-12.85L82.99-12.85Q81.59-11.55 79.97-9.73 78.34-7.9 76.92-5.65 75.49-3.4 74.59-0.7L74.59-0.7Q74.34 0.05 73.09 0.1L73.09 0.1Q71.39 0.2 71.14 0.35ZM94.94-19.35L94.94-19.35Q93.24-19.35 93.24-21L93.24-21Q93.24-22.65 94.84-22.65L94.84-22.65Q96.54-22.65 96.54-21L96.54-21Q96.54-19.35 94.94-19.35ZM90.64 0L88.14 0Q86.69 0 86.69-1.45L86.69-1.45Q86.69-2.35 87.29-3.9L87.29-3.9Q88.59-7.1 89.74-9.8 90.89-12.5 91.89-14.7L91.89-14.7Q92.04-14.95 92.04-15.25L92.04-15.25Q92.04-15.95 91.39-16.75L91.39-16.75 94.14-16.8Q95.54-16.8 95.54-16.1L95.54-16.1Q95.54-15.9 95.44-15.68 95.34-15.45 95.19-15.05L95.19-15.05 90.59-4.4Q89.89-2.75 89.89-1.6L89.89-1.6Q89.89-0.4 90.64 0L90.64 0Z" opacity="1" transform="matrix(1,0,0,1,0,0)" fill="#ffffff" class="wordmark-text-0" data-fill-palette-color="primary" id="text-0"></path></svg></g></svg></g></svg></g></svg></g></svg></g></svg></g></svg></g><g><path d="M0 123.6c0-68.262 55.338-123.6 123.6-123.6 45.53 0 85.31 24.618 106.756 61.269l-5.305 0c-20.954-34.033-58.553-56.722-101.451-56.721-65.751 0-119.052 53.302-119.052 119.052 0 65.751 53.302 119.052 119.052 119.052 42.898 0 80.497-22.689 101.451-56.721h5.305c-21.446 36.651-61.226 61.269-106.756 61.269-68.262 0-123.6-55.338-123.6-123.6z" fill="#ffffff" stroke="transparent" data-fill-palette-color="tertiary"></path></g></svg></g><defs></defs></svg><rect width="395.52" height="247.2" fill="none" stroke="none" visibility="hidden"></rect></g></svg></g></svg>